<?xml version="1.0" encoding="utf-8"?>
<!-- Generator: Adobe Illustrator 20.0.0, SVG Export Plug-In . SVG Version: 6.00 Build 0)  -->
<svg version="1.1" id="Layer_1" xmlns="http://www.w3.org/2000/svg" xmlns:xlink="http://www.w3.org/1999/xlink" x="0px" y="0px"
	 viewBox="0 0 510.2 510.2" style="enable-background:new 0 0 510.2 510.2;" xml:space="preserve">
<style type="text/css">
	.st0{fill:#EC2227;}
	.st1{fill:#FECF0C;}
	.st2{fill:#FAA51A;}
	.st3{fill:#FDEB0B;}
	.st4{fill:#FEDC00;}
	.st5{fill:#FBA930;}
	.st6{fill:#F8991E;}
	.st7{fill:#ED1C24;}
	.st8{font-family:'MyriadPro-Regular';}
	.st9{font-size:44.6281px;}
</style>
<g>
	<polygon class="st0" points="423.1,491.4 368.7,446.2 331.8,506.6 275.2,166.4 366.4,151.2 	"/>
	<polygon class="st0" points="92.4,474.4 151.2,435 181.6,498.9 273,166.2 183.8,141.7 	"/>
	<path class="st0" d="M129.3,340.2c23.6,21.1,52.1,36.7,83.6,44.9L273,166.2l-89.2-24.5L129.3,340.2z"/>
	<path class="st0" d="M366.4,151.2l-91.3,15.2l36.5,219.2c32.5-8,62-24,86.2-45.7L366.4,151.2z"/>
	<circle class="st1" cx="263.4" cy="190" r="183.2"/>
	<path class="st2" d="M389.9,57.4c31.4,32.9,50.7,77.4,50.7,126.5c0,101.2-82,183.2-183.2,183.2c-49.1,0-93.6-19.3-126.5-50.7
		c33.4,35,80.4,56.7,132.6,56.7c101.2,0,183.2-82,183.2-183.2C446.7,137.8,424.9,90.8,389.9,57.4z"/>
	<g>
		<path class="st3" d="M376.3,190c0,11.7-10.3,21.6-13.8,32.2c-3.6,10.9-1.2,25-7.8,34.1c-6.7,9.2-20.9,11.2-30.1,17.9
			c-9.1,6.6-15.4,19.5-26.3,23.1c-10.6,3.4-23.2-3.2-34.9-3.2c-11.7,0-24.3,6.6-34.9,3.2c-10.9-3.6-17.2-16.4-26.3-23.1
			c-9.2-6.7-23.4-8.7-30.1-17.9c-6.6-9.1-4.2-23.2-7.8-34.1c-3.4-10.6-13.8-20.5-13.8-32.2c0-11.7,10.3-21.6,13.8-32.2
			c3.6-10.9,1.2-25,7.8-34.1c6.7-9.2,20.9-11.2,30.1-17.9c9.1-6.6,15.4-19.5,26.3-23.1c10.6-3.4,23.2,3.2,34.9,3.2
			c11.7,0,24.3-6.6,34.9-3.2c10.9,3.6,17.2,16.4,26.3,23.1c9.2,6.7,23.4,8.7,30.1,17.9c6.6,9.1,4.2,23.2,7.8,34.1
			C366,168.3,376.3,178.3,376.3,190z"/>
		<path class="st4" d="M279.5,288.2c-14-3.1-18.1-3.1-32.1,0c-5,1.1-11.8,2.7-16.3,1.3c-8-2.6-14.3-14.8-24.1-21.9
			c-9.8-7.1-23.4-9.5-28.3-16.1c-4.8-6.6-2.9-20.3-6.6-31.8c-1.6-5-4.3-9.5-6.9-13.9c-8.6-14.6-8.6-17.1,0-31.6
			c2.6-4.4,5.3-8.9,6.9-13.9c3.8-11.6,1.8-25.3,6.6-31.8c4.9-6.7,18.5-9,28.3-16.1c9.7-7.1,16.1-19.3,24.1-21.9
			c4.5-1.5,11.3,0.2,16.3,1.3c14,3.1,18.1,3.1,32.1,0c5-1.1,11.8-2.7,16.3-1.3c8,2.6,14.4,14.8,24.1,21.9
			c9.8,7.2,23.4,9.4,28.3,16.1c4.8,6.6,2.9,20.3,6.6,31.8c1.6,5,4.3,9.5,6.9,13.9c8.6,14.6,8.6,17.1,0,31.6
			c-6.9,11.7-8.2,15.3-9.6,29.6c-1.6,16.5-2.8,18.2-18.1,24.9c-4.8,2.1-9.7,4.2-14,7.4c-9.7,7.1-16.1,19.3-24.1,21.9
			C294.6,289.9,284.7,289.4,279.5,288.2z"/>
		<circle class="st3" cx="263.4" cy="190" r="88.4"/>
	</g>
	<g>
		<g>
			<path class="st5" d="M235.6,312.3c7.3,5.8,9.3,15.4,9.3,15.4s-10,0.2-17.3-5.5c-7.3-5.8-9.3-15.4-9.3-15.4
				S228.2,306.5,235.6,312.3z"/>
			<path class="st5" d="M226.7,327.3c8.9-3.1,18.2,0.4,18.2,0.4s-5.1,8.4-13.9,11.5c-8.9,3.1-18.2-0.4-18.2-0.4
				S217.8,330.4,226.7,327.3z"/>
		</g>
		<g>
			<path class="st5" d="M206.9,304.6c6.5,6.7,7.1,16.5,7.1,16.5s-9.9-1.1-16.4-7.8c-6.5-6.7-7.1-16.5-7.1-16.5
				S200.4,297.8,206.9,304.6z"/>
			<path class="st5" d="M196,318.2c9.2-1.8,18,2.8,18,2.8s-6.2,7.7-15.4,9.5c-9.2,1.8-18-2.8-18-2.8S186.8,320.1,196,318.2z"/>
			<path class="st5" d="M184.3,293.4c5.3,7.6,4.3,17.4,4.3,17.4s-9.6-2.6-14.9-10.3c-5.3-7.6-4.3-17.4-4.3-17.4
				S179,285.7,184.3,293.4z"/>
			<path class="st5" d="M171.4,305.2c9.4-0.4,17.3,5.6,17.3,5.6s-7.3,6.6-16.7,7c-9.4,0.4-17.3-5.6-17.3-5.6S162,305.6,171.4,305.2z
				"/>
			<path class="st5" d="M163.3,276.4c3.3,8.7-0.1,17.9-0.1,17.9s-8.6-4.9-11.9-13.5c-3.3-8.7,0.1-17.9,0.1-17.9
				S160,267.7,163.3,276.4z"/>
			<path class="st5" d="M147.8,284.7c9.2,1.9,15.4,9.5,15.4,9.5s-8.8,4.7-18,2.8c-9.2-1.9-15.4-9.5-15.4-9.5
				S138.6,282.9,147.8,284.7z"/>
			<path class="st5" d="M147.3,256.7c1.1,9.2-4.4,17.4-4.4,17.4s-7.2-6.7-8.3-15.9c-1.1-9.2,4.4-17.4,4.4-17.4
				S146.2,247.5,147.3,256.7z"/>
			<path class="st5" d="M130.3,261.2c8.5,3.9,12.7,12.8,12.7,12.8s-9.6,2.5-18.1-1.4c-8.5-3.9-12.7-12.8-12.7-12.8
				S121.8,257.3,130.3,261.2z"/>
		</g>
		<g>
			<path class="st5" d="M133.7,231.9c-0.8,9.2-7.8,16.2-7.8,16.2s-5.7-8-5-17.2c0.8-9.2,7.8-16.2,7.8-16.2S134.5,222.7,133.7,231.9z
				"/>
			<path class="st5" d="M116.1,233c7.5,5.5,9.8,15.1,9.8,15.1s-9.9,0.6-17.5-5c-7.5-5.5-9.8-15.1-9.8-15.1S108.6,227.5,116.1,233z"
				/>
			<path class="st5" d="M126.7,208.2c-2.3,9-10.3,14.8-10.3,14.8s-4.4-8.8-2.1-17.8c2.3-9,10.3-14.8,10.3-14.8
				S129,199.3,126.7,208.2z"/>
			<path class="st5" d="M109.1,206.6c6.6,6.6,7.3,16.4,7.3,16.4s-9.9-1-16.5-7.6c-6.6-6.6-7.3-16.4-7.3-16.4S102.6,200,109.1,206.6z
				"/>
			<path class="st5" d="M125.9,181.9c-4.4,8.2-13.6,11.9-13.6,11.9s-2.1-9.6,2.3-17.8c4.4-8.2,13.6-11.9,13.6-11.9
				S130.3,173.7,125.9,181.9z"/>
			<path class="st5" d="M109.3,176.1c4.7,8,3,17.7,3,17.7s-9.4-3.3-14.1-11.3c-4.7-8-3-17.7-3-17.7S104.6,168.1,109.3,176.1z"/>
			<path class="st5" d="M130.6,155.3c-6.2,6.9-16.1,8.4-16.1,8.4s0.3-9.8,6.5-16.7c6.2-6.9,16.1-8.4,16.1-8.4
				S136.9,148.4,130.6,155.3z"/>
			<path class="st5" d="M115.8,145.8c2.7,8.9-1.3,17.9-1.3,17.9s-8.3-5.4-11-14.3c-2.7-8.9,1.3-17.9,1.3-17.9
				S113.1,136.9,115.8,145.8z"/>
		</g>
		<path class="st5" d="M140.3,133.4c-7.7,5.3-17.6,4.5-17.6,4.5s2.5-9.5,10.2-14.8c7.7-5.3,17.6-4.5,17.6-4.5
			S147.9,128.1,140.3,133.4z"/>
		<path class="st5" d="M128,120.9c0.6,9.2-5.4,17.1-5.4,17.1s-6.8-7.1-7.4-16.4c-0.6-9.2,5.4-17.1,5.4-17.1S127.5,111.6,128,120.9z"
			/>
		<path class="st5" d="M152.3,113.7c-8.4,4.1-18.1,1.7-18.1,1.7s4-9,12.5-13c8.4-4.1,18.1-1.8,18.1-1.8S160.7,109.6,152.3,113.7z"/>
		<path class="st5" d="M142.3,99.4c-0.9,9.2-8.1,16-8.1,16s-5.6-8.1-4.7-17.3c0.9-9.2,8.1-16,8.1-16S143.2,90.1,142.3,99.4z"/>
		<g>
			<path class="st5" d="M286.6,311.1c-7.3,5.8-9.3,15.4-9.3,15.4s10,0.2,17.3-5.5c7.3-5.8,9.3-15.4,9.3-15.4
				S293.9,305.3,286.6,311.1z"/>
			<path class="st5" d="M295.5,326.1c-8.9-3.1-18.2,0.4-18.2,0.4s5.1,8.4,13.9,11.5c8.9,3.1,18.2-0.4,18.2-0.4
				S304.4,329.2,295.5,326.1z"/>
		</g>
		<g>
			<path class="st5" d="M311.6,304.6c-6.5,6.7-7.1,16.5-7.1,16.5s9.9-1.1,16.4-7.8c6.5-6.7,7.1-16.5,7.1-16.5
				S318.1,297.8,311.6,304.6z"/>
			<path class="st5" d="M322.5,318.2c-9.2-1.8-18,2.8-18,2.8s6.2,7.7,15.4,9.5c9.2,1.8,18-2.8,18-2.8S331.8,320.1,322.5,318.2z"/>
			<path class="st5" d="M334.2,292.5c-5.3,7.6-4.3,17.4-4.3,17.4s9.6-2.6,14.9-10.3c5.3-7.6,4.3-17.4,4.3-17.4
				S339.5,284.8,334.2,292.5z"/>
			<path class="st5" d="M347.1,304.3c-9.4-0.4-17.3,5.6-17.3,5.6s7.3,6.6,16.7,7c9.4,0.4,17.3-5.6,17.3-5.6S356.5,304.6,347.1,304.3
				z"/>
			<path class="st5" d="M354.5,275.9c-3.3,8.7,0.1,17.9,0.1,17.9s8.6-4.9,11.9-13.5c3.3-8.7-0.1-17.9-0.1-17.9
				S357.8,267.2,354.5,275.9z"/>
			<path class="st5" d="M370,284.3c-9.2,1.9-15.4,9.5-15.4,9.5s8.8,4.7,18,2.8c9.2-1.9,15.4-9.5,15.4-9.5S379.2,282.4,370,284.3z"/>
			<path class="st5" d="M371.4,254.9c-1.1,9.2,4.4,17.4,4.4,17.4s7.2-6.7,8.3-15.9c1.1-9.2-4.4-17.4-4.4-17.4
				S372.4,245.7,371.4,254.9z"/>
			<path class="st5" d="M388.4,259.4c-8.5,3.9-12.7,12.8-12.7,12.8s9.6,2.5,18.1-1.4c8.5-3.9,12.7-12.8,12.7-12.8
				S396.9,255.5,388.4,259.4z"/>
		</g>
		<g>
			<path class="st5" d="M383.4,231.4c0.8,9.2,7.8,16.2,7.8,16.2s5.7-8,5-17.2c-0.8-9.2-7.8-16.2-7.8-16.2S382.6,222.2,383.4,231.4z"
				/>
			<path class="st5" d="M401,232.5c-7.5,5.5-9.8,15.1-9.8,15.1s9.9,0.6,17.5-5c7.5-5.5,9.8-15.1,9.8-15.1S408.6,227,401,232.5z"/>
			<path class="st5" d="M390.4,207.7c2.3,9,10.3,14.8,10.3,14.8s4.4-8.8,2.1-17.8c-2.3-9-10.3-14.8-10.3-14.8
				S388.2,198.8,390.4,207.7z"/>
			<path class="st5" d="M408,206.1c-6.6,6.6-7.3,16.4-7.3,16.4s9.9-1,16.5-7.6c6.6-6.6,7.3-16.4,7.3-16.4S414.6,199.5,408,206.1z"/>
			<path class="st5" d="M391.1,182.3c4.4,8.2,13.6,11.9,13.6,11.9s2.1-9.6-2.3-17.8c-4.4-8.2-13.6-11.9-13.6-11.9
				S386.7,174.1,391.1,182.3z"/>
			<path class="st5" d="M407.7,176.5c-4.7,8-3,17.7-3,17.7s9.4-3.3,14.1-11.3c4.7-8,3-17.7,3-17.7S412.4,168.5,407.7,176.5z"/>
			<path class="st5" d="M386.1,155.7c6.2,6.9,16.1,8.4,16.1,8.4s-0.3-9.8-6.5-16.7c-6.2-6.9-16.1-8.4-16.1-8.4
				S379.9,148.7,386.1,155.7z"/>
			<path class="st5" d="M400.9,146.2c-2.7,8.9,1.3,17.9,1.3,17.9s8.3-5.4,11-14.3c2.7-8.9-1.3-17.9-1.3-17.9
				S403.6,137.3,400.9,146.2z"/>
		</g>
		<path class="st5" d="M376.8,134.2c7.7,5.3,17.6,4.5,17.6,4.5s-2.5-9.5-10.2-14.8c-7.7-5.3-17.6-4.5-17.6-4.5
			S369.1,128.8,376.8,134.2z"/>
		<path class="st5" d="M389,121.6c-0.6,9.2,5.4,17.1,5.4,17.1s6.8-7.1,7.4-16.4c0.6-9.2-5.4-17.1-5.4-17.1S389.6,112.4,389,121.6z"
			/>
		<path class="st5" d="M364.1,114.5c8.4,4.1,18.1,1.7,18.1,1.7s-4-9-12.5-13c-8.4-4.1-18.1-1.8-18.1-1.8S355.6,110.4,364.1,114.5z"
			/>
		<path class="st5" d="M374.1,100.2c0.9,9.2,8.1,16,8.1,16s5.6-8.1,4.7-17.3c-0.9-9.2-8.1-16-8.1-16S373.2,91,374.1,100.2z"/>
		<path class="st6" d="M357.3,86.3c-0.4,0.4-0.8,0.8-1.3,1.2c-0.1,0.1-0.3,0.2-0.4,0.3c29.5,25.1,48.1,61.5,48.1,101.8
			c0,75.6-65.1,137.1-145.2,137.1c-80.1,0-145.2-61.5-145.2-137.1c0-38.6,17-73.5,44.2-98.4c-0.8-0.2-1.6-0.5-2.3-0.9
			c-27.3,25.3-44.2,60.5-44.2,99.3c0,76.8,66.2,139.3,147.5,139.3c81.3,0,147.5-62.5,147.5-139.3
			C405.9,148.7,387.1,111.8,357.3,86.3z"/>
		<path class="st5" d="M171.8,96.2c-9.2,1.9-18-2.6-18-2.6s6.1-7.7,15.3-9.7c9.2-1.9,18,2.6,18,2.6S181,94.2,171.8,96.2z"/>
		<path class="st5" d="M165.6,79.9c-3.2,8.7-11.8,13.6-11.8,13.6s-3.4-9.2-0.3-17.9c3.2-8.7,11.8-13.6,11.8-13.6
			S168.8,71.2,165.6,79.9z"/>
		<path class="st5" d="M345.5,96.2c9.2,1.9,18-2.6,18-2.6s-6.1-7.7-15.3-9.7c-9.2-1.9-18,2.6-18,2.6S336.3,94.2,345.5,96.2z"/>
		<path class="st5" d="M351.7,79.9c3.2,8.7,11.8,13.6,11.8,13.6s3.4-9.2,0.3-17.9C360.6,66.9,352,62,352,62S348.5,71.2,351.7,79.9z"
			/>
	</g>
	<polygon class="st3" points="228.8,66.5 216.3,62.8 204.8,69.1 204.4,56.1 194.9,47.1 207.1,42.6 212.7,30.8 220.8,41.1 
		233.7,42.8 226.4,53.6 	"/>
	<polygon class="st3" points="312.3,67.6 323.1,74.9 324.8,62 335.2,54 323.4,48.3 319,36 310,45.5 296.9,45.9 303.1,57.4 
		299.5,69.9 	"/>
	<polygon class="st3" points="275.7,64.7 263.9,59.2 251.6,63.6 253.1,50.6 245.1,40.3 257.9,37.8 265.3,27 271.6,38.4 284.2,42 
		275.3,51.6 	"/>
</g>
<text transform="matrix(1 0 0 1 178.9434 198.103)" class="st7 st8 st9">potential</text>
</svg>
